<?xml version="1.0" encoding="utf-8"?>
<!-- Generator: Adobe Illustrator 28.3.0, SVG Export Plug-In . SVG Version: 6.00 Build 0)  -->
<svg version="1.1" id="Layer_1" xmlns="http://www.w3.org/2000/svg" xmlns:xlink="http://www.w3.org/1999/xlink" x="0px" y="0px"
	 viewBox="0 0 85.4 8.9" style="enable-background:new 0 0 85.4 8.9;" xml:space="preserve">
<style type="text/css">
	.st0{fill:#FFFFFF;}
</style>
<g>
	<path class="st0" d="M4.9,2.8L4.6,2H3.2v1.4h2.1v1.7H3.2v1.7h1.5L5,6.1h1.4v2.6H0V7.3L0.8,7V2L0,1.6V0.2l3.2-0.1h3.1v2.6H4.9z"/>
	<path class="st0" d="M15.7,1.8l-2.2,2.5l2.3,2.8l0.7,0.2v1.4h-4.2V7.3l0.4-0.2l-1-1.1l-0.9,1.1l0.5,0.2v1.4h-4V7.3L8,7l2.3-2.5
		L8.1,1.8L7.6,1.6V0.2l4-0.1v1.4l-0.4,0.2l0.9,1.1l0.8-1l-0.4-0.3V0.2l3.7-0.1v1.4L15.7,1.8z"/>
	<path class="st0" d="M25.9,7.3v1.4h-4.1V7.3L22.4,7l-0.1-0.5h-2.2L20,7l0.7,0.3v1.4h-3.9V7.3L17.5,7l2.5-6.8l2.6-0.1L25.2,7
		L25.9,7.3z M20.6,4.9h1.2l-0.3-1.3l-0.3-1.2L21,3.6L20.6,4.9z"/>
	<path class="st0" d="M35.3,2V7L36,7.3v1.4h-3.8V7.3L33,7V3.9l-0.2,0.6l-0.9,1.9l-1.6,0.1l-0.9-1.8l-0.1-0.4V7l0.7,0.4v1.4h-3.6V7.3
		L27.1,7V2l-0.8-0.5V0.2l3.5-0.1l1.4,3.2l1.5-3.1L36,0.2v1.4L35.3,2z"/>
	<path class="st0" d="M41.3,0.2c1.9,0,3.1,1,3.1,2.6c0,2.2-1.3,3.2-3.6,3.2h-0.5v1L41,7.3v1.4h-4V7.3L37.8,7V2L37,1.6V0.2l3.2-0.1
		H41.3z M40.2,4.1h0.5c0.7,0,1.1-0.3,1.1-1c0-0.6-0.3-1-0.9-1h-0.7V4.1z"/>
	<path class="st0" d="M48.1,2v4.8h1.2l0.3-1.3H51v3.2h-6.2V7.3L45.6,7V2l-0.8-0.5V0.2l4-0.1v1.4L48.1,2z"/>
	<path class="st0" d="M56.6,2.8L56.3,2h-1.3v1.4H57v1.7h-2.1v1.7h1.5l0.3-0.8h1.4v2.6h-6.5V7.3L52.5,7V2l-0.8-0.5V0.2l3.2-0.1H58
		v2.6H56.6z"/>
	<path class="st0" d="M65.2,0.5l-0.1,2.3h-1.4l-0.2-0.8c0,0-0.5-0.1-0.8-0.1c-0.6,0-1,0.2-1,0.5c0,1,3.8,0.5,3.8,3.5
		c0,1.8-1.3,2.9-3.4,2.9c-1.4,0-2.9-0.4-2.9-0.4V5.9h1.5l0.1,0.8c0,0,0.4,0.2,1,0.2c0.7,0,1.1-0.2,1.1-0.7c0-1-3.8-0.5-3.8-3.5
		c0-1.6,1.3-2.7,3.2-2.7C64,0,65.2,0.5,65.2,0.5z"/>
	<path class="st0" d="M69.6,2V7l0.8,0.4v1.4h-4V7.3L67.1,7V2l-0.8-0.5V0.2l4-0.1v1.4L69.6,2z"/>
	<path class="st0" d="M76.8,3.1L76.5,2h-0.7V7l0.8,0.4v1.4h-4V7.3L73.3,7V2h-0.7l-0.3,1.1h-1.4V0.2l7.4-0.1v2.9H76.8z"/>
	<path class="st0" d="M83.8,2.8L83.5,2h-1.3v1.4h2.1v1.7h-2.1v1.7h1.5L84,6.1h1.4v2.6h-6.5V7.3L79.7,7V2l-0.8-0.5V0.2l3.2-0.1h3.1
		v2.6H83.8z"/>
</g>
<g>
</g>
<g>
</g>
<g>
</g>
<g>
</g>
<g>
</g>
<g>
</g>
</svg>
